<svg width="70" height="70" xmlns="http://www.w3.org/2000/svg"><defs><linearGradient x1="4.236%" y1="27.711%" x2="93.519%" y2="78.351%" id="a"><stop stop-color="#474545" offset="0%"/><stop stop-color="#181818" offset="100%"/></linearGradient></defs><g fill="none" fill-rule="evenodd"><circle fill="url(#a)" cx="35" cy="35" r="35"/><g fill="#FFF" fill-rule="nonzero"><path d="M44.654 51.03H25.285a6.324 6.324 0 0 1-6.315-6.315V25.346a6.324 6.324 0 0 1 6.315-6.316h9.685a1.263 1.263 0 0 1 0 2.527h-9.685a3.798 3.798 0 0 0-3.789 3.79v19.368a3.798 3.798 0 0 0 3.79 3.789h19.368a3.798 3.798 0 0 0 3.79-3.79V35.03a1.263 1.263 0 0 1 2.526 0v9.685a6.324 6.324 0 0 1-6.316 6.315Z"/><path d="M35.126 36.097a1.23 1.23 0 0 1-1.223-1.221c0-.325.13-.635.36-.863l14.653-14.655a1.22 1.22 0 0 1 1.726 1.726L35.989 35.74a1.23 1.23 0 0 1-.863.358Z"/><path d="M49.66 21.164H42.68c-.723 0-1.31-.478-1.31-1.067 0-.59.587-1.067 1.31-1.067h6.982c.723 0 1.309.478 1.309 1.067 0 .59-.586 1.067-1.31 1.067Z"/><path d="M49.903 28.63c-.59 0-1.067-.586-1.067-1.309V20.34c0-.723.478-1.309 1.067-1.309.59 0 1.067.586 1.067 1.31v6.981c0 .723-.478 1.31-1.067 1.31Z"/></g></g></svg>