<svg width="27" height="27" xmlns="http://www.w3.org/2000/svg"><g fill="#000" fill-rule="nonzero"><path d="M4 7a3 3 0 1 0 6 0 3 3 0 0 0-6 0Z"/><path d="M26.898 2.954c-.015-.06-.03-.123-.049-.183a3.066 3.066 0 0 0-.057-.178c-.009-.03-.02-.06-.03-.087-.033-.088-.066-.175-.105-.26a4.21 4.21 0 0 0-.265-.484c-.018-.027-.033-.051-.052-.075a3.822 3.822 0 0 0-.533-.63A3.803 3.803 0 0 0 23.178 0H3.822a3.78 3.78 0 0 0-2.28.762 3.809 3.809 0 0 0-.214.172l-.07.06-.098.093-.067.066a3.176 3.176 0 0 0-.214.238c-.018.025-.039.049-.057.073a3.743 3.743 0 0 0-.774 1.792c-.03.198-.048.4-.048.605v19.275c0 .277.03.551.087.813.15.717.5 1.361.994 1.87l.082.082a4.172 4.172 0 0 0 .533.437l.075.05c.051.034.105.067.156.097l.082.045a4.17 4.17 0 0 0 .774.32c.18.05.367.09.557.114.169.024.34.036.515.036H23.13c.108 0 .214-.006.32-.012a3.64 3.64 0 0 0 .954-.193c.147-.051.292-.108.43-.177.055-.028.112-.055.166-.085l.082-.045c.265-.154.512-.337.734-.548.018-.015.034-.033.049-.048.006-.006.012-.01.015-.015.066-.067.126-.133.186-.202.003-.003.006-.01.012-.012.037-.042.073-.085.106-.127.039-.048.075-.096.111-.147.012-.018.024-.036.036-.051.01-.013.018-.028.028-.04a.682.682 0 0 0 .039-.06l.036-.06.012-.018.063-.109.072-.132c.04-.075.076-.154.109-.232.015-.036.03-.07.042-.105.027-.067.051-.136.075-.205.015-.048.033-.1.045-.15.018-.061.034-.124.049-.185l.018-.084c.012-.057.024-.114.033-.175 0-.006.003-.012.003-.02.006-.049.015-.094.018-.142.006-.048.009-.097.015-.145.006-.096.012-.192.012-.292V3.813a4.032 4.032 0 0 0-.102-.859Zm-6.171 9.195a1.958 1.958 0 0 0-2.765 0l-7.288 7.289-3.443-3.44a1.958 1.958 0 0 0-2.765 0l-2.539 2.54V3.86a1.9 1.9 0 0 1 .57-1.358 1.9 1.9 0 0 1 1.358-.57H23.13a1.9 1.9 0 0 1 1.358.57 1.9 1.9 0 0 1 .57 1.358v12.62l-4.331-4.332Z"/></g></svg>