<svg xmlns="http://www.w3.org/2000/svg" viewBox="0 0 42 41"><path d="M15.576 36.727v-5.673c0-1.443 1.21-2.616 2.711-2.626h5.495c1.508 0 2.73 1.176 2.73 2.626v5.69c0 1.226 1.016 2.227 2.29 2.256h3.663c3.652 0 6.613-2.848 6.613-6.36V16.5c-.02-1.382-.694-2.68-1.832-3.524l-12.53-9.708c-2.194-1.69-5.315-1.69-7.51 0L4.732 12.994c-1.142.84-1.818 2.14-1.832 3.524v16.121C2.9 36.152 5.86 39 9.513 39h3.663c1.305 0 2.363-1.018 2.363-2.273" stroke-width="4" stroke="#AEAEAE" fill-rule="evenodd" fill="none" data-follow-stroke="#AEAEAE"/></svg>