<svg xmlns="http://www.w3.org/2000/svg" viewBox="0 0 94 94"><defs><linearGradient id="a" y2="84.105%" x2="85.513%" y1="24.009%" x1="10.488%"><stop offset="0%" stop-color="#474545"/><stop offset="100%" stop-color="#181818"/></linearGradient></defs><g fill-rule="evenodd" fill="none"><circle r="47" cy="47" cx="47" fill="url(#a)"/><g stroke-width="3" stroke-linejoin="round" stroke="#F8D3AA" data-follow-stroke="#F8D3AA"><path d="M57 38a6 6 0 1 0 0-12 6 6 0 0 0 0 12ZM30 53a6 6 0 1 0 0-12 6 6 0 0 0 0 12Z"/><path stroke-linecap="round" d="m51 35-15 9M36 50l16 9"/><path d="M57 56a6 6 0 1 1 0 12 6 6 0 0 1 0-12Z"/></g></g></svg>