<svg xmlns="http://www.w3.org/2000/svg" viewBox="0 0 42 41"><defs><linearGradient id="a" y2="100%" x2="97.802%" y1="13.552%" x1="25.545%"><stop offset="0%" stop-color="#474545"/><stop offset="100%" stop-color="#181818"/></linearGradient></defs><path d="M12.676 34.727v-5.673c0-1.443 1.21-2.616 2.711-2.626h5.495c1.508 0 2.73 1.176 2.73 2.626v5.69c0 1.226 1.016 2.227 2.29 2.256h3.663c3.652 0 6.613-2.848 6.613-6.36V14.5c-.02-1.382-.694-2.68-1.832-3.524l-12.53-9.708c-2.194-1.69-5.315-1.69-7.51 0L1.832 10.994C.69 11.834.014 13.134 0 14.518v16.121C0 34.152 2.96 37 6.613 37h3.663c1.305 0 2.363-1.018 2.363-2.273" transform="translate(2.9 2)" stroke-width="4" stroke="url(#a)" fill-rule="evenodd" fill="none"/></svg>